<mxfile host="app.diagrams.net" modified="2024-05-05T20:12:51.212Z" agent="Mozilla/5.0 (Windows NT 10.0; Win64; x64) AppleWebKit/537.36 (KHTML, like Gecko) Chrome/124.0.0.0 Safari/537.36" etag="miTNNY7ZmWWL0oD23dYj" version="24.3.1" type="github">
  <diagram name="第 1 页" id="sSzg4yru0V2jtsQIOEy3">
    <mxGraphModel dx="1034" dy="492" grid="1" gridSize="10" guides="1" tooltips="1" connect="1" arrows="1" fold="1" page="1" pageScale="1" pageWidth="827" pageHeight="1169" math="0" shadow="0">
      <root>
        <mxCell id="0" />
        <mxCell id="1" parent="0" />
        <mxCell id="2k4dwGGTvVKfZvUi6wRE-2" value="" style="endArrow=classic;html=1;rounded=0;" edge="1" parent="1">
          <mxGeometry width="50" height="50" relative="1" as="geometry">
            <mxPoint x="80" y="120" as="sourcePoint" />
            <mxPoint x="460" y="120" as="targetPoint" />
          </mxGeometry>
        </mxCell>
        <mxCell id="2k4dwGGTvVKfZvUi6wRE-3" value="Time Line" style="text;html=1;align=center;verticalAlign=middle;resizable=0;points=[];autosize=1;strokeColor=none;fillColor=none;" vertex="1" parent="1">
          <mxGeometry x="20" y="88" width="80" height="30" as="geometry" />
        </mxCell>
        <mxCell id="2k4dwGGTvVKfZvUi6wRE-4" value="t0" style="text;html=1;align=center;verticalAlign=middle;resizable=0;points=[];autosize=1;strokeColor=none;fillColor=none;" vertex="1" parent="1">
          <mxGeometry x="125" y="78" width="30" height="30" as="geometry" />
        </mxCell>
        <mxCell id="2k4dwGGTvVKfZvUi6wRE-5" value="t1" style="text;html=1;align=center;verticalAlign=middle;resizable=0;points=[];autosize=1;strokeColor=none;fillColor=none;" vertex="1" parent="1">
          <mxGeometry x="185" y="78" width="30" height="30" as="geometry" />
        </mxCell>
        <mxCell id="2k4dwGGTvVKfZvUi6wRE-6" value="t2" style="text;html=1;align=center;verticalAlign=middle;resizable=0;points=[];autosize=1;strokeColor=none;fillColor=none;" vertex="1" parent="1">
          <mxGeometry x="335" y="78" width="30" height="30" as="geometry" />
        </mxCell>
        <mxCell id="2k4dwGGTvVKfZvUi6wRE-7" value="t+1" style="text;html=1;align=center;verticalAlign=middle;resizable=0;points=[];autosize=1;strokeColor=none;fillColor=none;" vertex="1" parent="1">
          <mxGeometry x="410" y="78" width="40" height="30" as="geometry" />
        </mxCell>
        <mxCell id="2k4dwGGTvVKfZvUi6wRE-8" value="" style="rounded=1;whiteSpace=wrap;html=1;" vertex="1" parent="1">
          <mxGeometry x="30" y="130" width="182.5" height="180" as="geometry" />
        </mxCell>
        <mxCell id="2k4dwGGTvVKfZvUi6wRE-18" style="rounded=0;orthogonalLoop=1;jettySize=auto;html=1;entryX=1;entryY=0;entryDx=0;entryDy=0;" edge="1" parent="1" source="2k4dwGGTvVKfZvUi6wRE-10" target="2k4dwGGTvVKfZvUi6wRE-11">
          <mxGeometry relative="1" as="geometry" />
        </mxCell>
        <mxCell id="2k4dwGGTvVKfZvUi6wRE-32" style="rounded=0;orthogonalLoop=1;jettySize=auto;html=1;entryX=1;entryY=0;entryDx=0;entryDy=0;" edge="1" parent="1" source="2k4dwGGTvVKfZvUi6wRE-10" target="2k4dwGGTvVKfZvUi6wRE-30">
          <mxGeometry relative="1" as="geometry" />
        </mxCell>
        <mxCell id="2k4dwGGTvVKfZvUi6wRE-10" value="" style="ellipse;whiteSpace=wrap;html=1;aspect=fixed;" vertex="1" parent="1">
          <mxGeometry x="105" y="160" width="12.5" height="12.5" as="geometry" />
        </mxCell>
        <mxCell id="2k4dwGGTvVKfZvUi6wRE-11" value="" style="ellipse;whiteSpace=wrap;html=1;aspect=fixed;" vertex="1" parent="1">
          <mxGeometry x="85" y="210" width="15" height="15" as="geometry" />
        </mxCell>
        <mxCell id="2k4dwGGTvVKfZvUi6wRE-42" style="rounded=0;orthogonalLoop=1;jettySize=auto;html=1;entryX=0.5;entryY=0;entryDx=0;entryDy=0;" edge="1" parent="1" source="2k4dwGGTvVKfZvUi6wRE-12" target="2k4dwGGTvVKfZvUi6wRE-16">
          <mxGeometry relative="1" as="geometry" />
        </mxCell>
        <mxCell id="2k4dwGGTvVKfZvUi6wRE-12" value="" style="ellipse;whiteSpace=wrap;html=1;aspect=fixed;" vertex="1" parent="1">
          <mxGeometry x="117.5" y="210" width="15" height="15" as="geometry" />
        </mxCell>
        <mxCell id="2k4dwGGTvVKfZvUi6wRE-13" value="" style="ellipse;whiteSpace=wrap;html=1;aspect=fixed;" vertex="1" parent="1">
          <mxGeometry x="150" y="207.5" width="15" height="15" as="geometry" />
        </mxCell>
        <mxCell id="2k4dwGGTvVKfZvUi6wRE-40" style="rounded=0;orthogonalLoop=1;jettySize=auto;html=1;entryX=0;entryY=0;entryDx=0;entryDy=0;" edge="1" parent="1" source="2k4dwGGTvVKfZvUi6wRE-14" target="2k4dwGGTvVKfZvUi6wRE-17">
          <mxGeometry relative="1" as="geometry" />
        </mxCell>
        <mxCell id="2k4dwGGTvVKfZvUi6wRE-14" value="" style="ellipse;whiteSpace=wrap;html=1;aspect=fixed;" vertex="1" parent="1">
          <mxGeometry x="85" y="250" width="15" height="15" as="geometry" />
        </mxCell>
        <mxCell id="2k4dwGGTvVKfZvUi6wRE-41" style="rounded=0;orthogonalLoop=1;jettySize=auto;html=1;entryX=1;entryY=0;entryDx=0;entryDy=0;" edge="1" parent="1" source="2k4dwGGTvVKfZvUi6wRE-16" target="2k4dwGGTvVKfZvUi6wRE-17">
          <mxGeometry relative="1" as="geometry" />
        </mxCell>
        <mxCell id="2k4dwGGTvVKfZvUi6wRE-16" value="" style="ellipse;whiteSpace=wrap;html=1;aspect=fixed;" vertex="1" parent="1">
          <mxGeometry x="140" y="240" width="15" height="15" as="geometry" />
        </mxCell>
        <mxCell id="2k4dwGGTvVKfZvUi6wRE-17" value="" style="ellipse;whiteSpace=wrap;html=1;aspect=fixed;" vertex="1" parent="1">
          <mxGeometry x="113.75" y="280" width="15" height="15" as="geometry" />
        </mxCell>
        <mxCell id="2k4dwGGTvVKfZvUi6wRE-19" style="rounded=0;orthogonalLoop=1;jettySize=auto;html=1;entryX=1;entryY=0;entryDx=0;entryDy=0;" edge="1" parent="1" target="2k4dwGGTvVKfZvUi6wRE-12">
          <mxGeometry relative="1" as="geometry">
            <mxPoint x="110" y="172" as="sourcePoint" />
            <mxPoint x="98" y="212" as="targetPoint" />
          </mxGeometry>
        </mxCell>
        <mxCell id="2k4dwGGTvVKfZvUi6wRE-20" style="rounded=0;orthogonalLoop=1;jettySize=auto;html=1;entryX=0;entryY=0;entryDx=0;entryDy=0;exitX=1;exitY=1;exitDx=0;exitDy=0;" edge="1" parent="1" source="2k4dwGGTvVKfZvUi6wRE-10" target="2k4dwGGTvVKfZvUi6wRE-13">
          <mxGeometry relative="1" as="geometry">
            <mxPoint x="120" y="182" as="sourcePoint" />
            <mxPoint x="108" y="222" as="targetPoint" />
          </mxGeometry>
        </mxCell>
        <mxCell id="2k4dwGGTvVKfZvUi6wRE-21" style="rounded=0;orthogonalLoop=1;jettySize=auto;html=1;entryX=0.5;entryY=0;entryDx=0;entryDy=0;exitX=0.5;exitY=1;exitDx=0;exitDy=0;" edge="1" parent="1" source="2k4dwGGTvVKfZvUi6wRE-11" target="2k4dwGGTvVKfZvUi6wRE-14">
          <mxGeometry relative="1" as="geometry">
            <mxPoint x="130" y="192" as="sourcePoint" />
            <mxPoint x="118" y="232" as="targetPoint" />
          </mxGeometry>
        </mxCell>
        <mxCell id="2k4dwGGTvVKfZvUi6wRE-22" style="rounded=0;orthogonalLoop=1;jettySize=auto;html=1;entryX=1;entryY=0;entryDx=0;entryDy=0;exitX=0.5;exitY=1;exitDx=0;exitDy=0;" edge="1" parent="1" source="2k4dwGGTvVKfZvUi6wRE-12" target="2k4dwGGTvVKfZvUi6wRE-14">
          <mxGeometry relative="1" as="geometry">
            <mxPoint x="120" y="230" as="sourcePoint" />
            <mxPoint x="128" y="242" as="targetPoint" />
          </mxGeometry>
        </mxCell>
        <mxCell id="2k4dwGGTvVKfZvUi6wRE-23" style="rounded=0;orthogonalLoop=1;jettySize=auto;html=1;entryX=1;entryY=0;entryDx=0;entryDy=0;exitX=0.5;exitY=1;exitDx=0;exitDy=0;" edge="1" parent="1" source="2k4dwGGTvVKfZvUi6wRE-13" target="2k4dwGGTvVKfZvUi6wRE-14">
          <mxGeometry relative="1" as="geometry">
            <mxPoint x="125" y="240" as="sourcePoint" />
            <mxPoint x="138" y="252" as="targetPoint" />
          </mxGeometry>
        </mxCell>
        <mxCell id="2k4dwGGTvVKfZvUi6wRE-37" style="rounded=0;orthogonalLoop=1;jettySize=auto;html=1;entryX=0;entryY=0;entryDx=0;entryDy=0;" edge="1" parent="1" source="2k4dwGGTvVKfZvUi6wRE-30" target="2k4dwGGTvVKfZvUi6wRE-14">
          <mxGeometry relative="1" as="geometry" />
        </mxCell>
        <mxCell id="2k4dwGGTvVKfZvUi6wRE-30" value="" style="ellipse;whiteSpace=wrap;html=1;aspect=fixed;" vertex="1" parent="1">
          <mxGeometry x="60" y="210" width="20" height="20" as="geometry" />
        </mxCell>
      </root>
    </mxGraphModel>
  </diagram>
</mxfile>
